<?xml version="1.0" encoding="UTF-8" standalone="no"?>
<!DOCTYPE svg PUBLIC "-//W3C//DTD SVG 1.1//EN" "http://www.w3.org/Graphics/SVG/1.1/DTD/svg11.dtd">
<svg width="100%" height="100%" viewBox="0 0 443 568" version="1.1" xmlns="http://www.w3.org/2000/svg" xmlns:xlink="http://www.w3.org/1999/xlink" xml:space="preserve" xmlns:serif="http://www.serif.com/" style="fill-rule:evenodd;clip-rule:evenodd;stroke-linecap:round;stroke-linejoin:round;stroke-miterlimit:1.5;">
    <g id="Artboard1" transform="matrix(1,0,0,1,-181.337,-19.7452)">
        <rect x="181.337" y="19.745" width="442.44" height="567.056" style="fill:none;"/>
        <clipPath id="_clip1">
            <rect x="181.337" y="19.745" width="442.44" height="567.056"/>
        </clipPath>
        <g clip-path="url(#_clip1)">
            <g transform="matrix(-2.60129,0.000312633,-0.000271081,-2.25555,741.934,767.591)">
                <path d="M130.314,82.513C130.314,82.513 47.591,187.974 47.591,233.171C47.591,285.826 84.658,328.574 130.314,328.574C175.97,328.574 213.037,285.826 213.037,233.171C213.037,187.974 130.314,82.513 130.314,82.513Z" style="fill:rgb(5,97,125);stroke:rgb(185,195,194);stroke-width:4.93px;"/>
            </g>
            <g transform="matrix(0.423844,0,0,0.377271,275.757,109.337)">
                <circle cx="285.489" cy="211.503" r="69.815" style="fill:white;"/>
            </g>
            <g transform="matrix(0.985527,-6.34571e-17,6.34571e-17,-1.50369,188.598,613.367)">
                <path d="M263.427,262.298L167.173,262.298L191.236,210.009L239.364,210.009L263.427,262.298Z" style="fill:white;"/>
            </g>
            <g transform="matrix(0.171683,-0.0460022,0.258819,0.965926,237.062,61.4867)">
                <path d="M165.795,85.75C165.795,84.462 159.908,83.415 152.657,83.415L126.379,83.415C119.128,83.415 113.241,84.462 113.241,85.75L113.241,293.581C113.241,294.87 119.128,295.916 126.379,295.916L152.657,295.916C159.908,295.916 165.795,294.87 165.795,293.581L165.795,85.75Z" style="fill:white;"/>
            </g>
            <g transform="matrix(0.476447,-0.031711,0.0919014,0.530761,288.265,247.72)">
                <path d="M165.795,95.127C165.795,88.663 159.908,83.415 152.657,83.415L126.379,83.415C119.128,83.415 113.241,88.663 113.241,95.127L113.241,284.205C113.241,290.668 119.128,295.916 126.379,295.916L152.657,295.916C159.908,295.916 165.795,290.668 165.795,284.205L165.795,95.127Z" style="fill:white;"/>
            </g>
            <g transform="matrix(-0.522019,-0.0347441,-0.0607425,0.350808,511.402,263.028)">
                <path d="M165.795,102.829C165.795,92.114 159.908,83.415 152.657,83.415L126.379,83.415C119.128,83.415 113.241,92.114 113.241,102.829L113.241,276.502C113.241,287.217 119.128,295.916 126.379,295.916L152.657,295.916C159.908,295.916 165.795,287.217 165.795,276.502L165.795,102.829Z" style="fill:white;"/>
            </g>
            <g transform="matrix(-0.259164,-0.233775,-0.231458,0.182641,532.436,224.036)">
                <path d="M165.795,99.193C165.795,90.485 159.908,83.415 152.657,83.415L126.379,83.415C119.128,83.415 113.241,90.485 113.241,99.193L113.241,280.139C113.241,288.847 119.128,295.916 126.379,295.916L152.657,295.916C159.908,295.916 165.795,288.847 165.795,280.139L165.795,99.193Z" style="fill:white;"/>
            </g>
            <g transform="matrix(-0.313004,-0.154418,-0.173015,0.238739,565.037,165.012)">
                <path d="M165.795,99.193C165.795,90.485 159.908,83.415 152.657,83.415L126.379,83.415C119.128,83.415 113.241,90.485 113.241,99.193L113.241,280.139C113.241,288.847 119.128,295.916 126.379,295.916L152.657,295.916C159.908,295.916 165.795,288.847 165.795,280.139L165.795,99.193Z" style="fill:white;"/>
            </g>
            <g transform="matrix(0.259164,-0.233775,0.231458,0.182641,266.858,221.036)">
                <path d="M165.795,99.193C165.795,90.485 159.908,83.415 152.657,83.415L126.379,83.415C119.128,83.415 113.241,90.485 113.241,99.193L113.241,280.139C113.241,288.847 119.128,295.916 126.379,295.916L152.657,295.916C159.908,295.916 165.795,288.847 165.795,280.139L165.795,99.193Z" style="fill:white;"/>
            </g>
            <g transform="matrix(0.313004,-0.154418,0.173015,0.238739,234.257,162.012)">
                <path d="M165.795,99.193C165.795,90.485 159.908,83.415 152.657,83.415L126.379,83.415C119.128,83.415 113.241,90.485 113.241,99.193L113.241,280.139C113.241,288.847 119.128,295.916 126.379,295.916L152.657,295.916C159.908,295.916 165.795,288.847 165.795,280.139L165.795,99.193Z" style="fill:white;"/>
            </g>
            <g transform="matrix(-5.20417e-18,-0.45325,1,-3.26128e-16,209.542,370.133)">
                <path d="M165.795,89.37C165.795,86.084 159.908,83.415 152.657,83.415L126.379,83.415C119.128,83.415 113.241,86.084 113.241,89.37L113.241,289.961C113.241,293.248 119.128,295.916 126.379,295.916L152.657,295.916C159.908,295.916 165.795,293.248 165.795,289.961L165.795,89.37Z" style="fill:white;"/>
            </g>
            <g transform="matrix(-0.171683,-0.0460022,-0.258819,0.965926,564.11,59.4867)">
                <path d="M165.795,85.75C165.795,84.462 159.908,83.415 152.657,83.415L126.379,83.415C119.128,83.415 113.241,84.462 113.241,85.75L113.241,293.581C113.241,294.87 119.128,295.916 126.379,295.916L152.657,295.916C159.908,295.916 165.795,294.87 165.795,293.581L165.795,85.75Z" style="fill:white;"/>
            </g>
        </g>
    </g>
</svg>
