<?xml version="1.0" encoding="UTF-8" standalone="no"?>
<!DOCTYPE svg PUBLIC "-//W3C//DTD SVG 1.1//EN" "http://www.w3.org/Graphics/SVG/1.1/DTD/svg11.dtd">
<svg width="100%" height="100%" viewBox="0 0 800 600" version="1.1" xmlns="http://www.w3.org/2000/svg" xmlns:xlink="http://www.w3.org/1999/xlink" xml:space="preserve" xmlns:serif="http://www.serif.com/" style="fill-rule:evenodd;clip-rule:evenodd;stroke-linecap:round;stroke-linejoin:round;stroke-miterlimit:1.5;">
    <g transform="matrix(-2.60129,0.000312633,-0.000271081,-2.25555,741.597,766.846)">
        <path d="M130.314,82.513C130.314,82.513 47.591,187.974 47.591,233.171C47.591,285.826 84.658,328.574 130.314,328.574C175.97,328.574 213.037,285.826 213.037,233.171C213.037,187.974 130.314,82.513 130.314,82.513Z" style="fill:rgb(42,50,50);stroke:rgb(185,195,194);stroke-width:4.93px;"/>
    </g>
    <g transform="matrix(1.42984,0,0,1.70087,-754.786,-52.798)">
        <path d="M809.603,62.613L839.54,139.018L936.42,139.018L858.043,186.239L887.98,262.644L809.603,215.423L731.226,262.644L761.163,186.239L682.786,139.018L779.665,139.018L809.603,62.613Z" style="fill:white;"/>
    </g>
</svg>
