<?xml version="1.0" encoding="UTF-8" standalone="no"?>
<!DOCTYPE svg PUBLIC "-//W3C//DTD SVG 1.1//EN" "http://www.w3.org/Graphics/SVG/1.1/DTD/svg11.dtd">
<svg width="100%" height="100%" viewBox="0 0 443 568" version="1.1" xmlns="http://www.w3.org/2000/svg" xmlns:xlink="http://www.w3.org/1999/xlink" xml:space="preserve" xmlns:serif="http://www.serif.com/" style="fill-rule:evenodd;clip-rule:evenodd;stroke-linecap:round;stroke-linejoin:round;stroke-miterlimit:1.5;">
    <g id="Artboard1" transform="matrix(1,0,0,1,-181.337,-19.7452)">
        <rect x="181.337" y="19.745" width="442.44" height="567.056" style="fill:none;"/>
        <clipPath id="_clip1">
            <rect x="181.337" y="19.745" width="442.44" height="567.056"/>
        </clipPath>
        <g clip-path="url(#_clip1)">
            <g transform="matrix(-2.60129,0.000312633,-0.000271081,-2.25555,741.934,767.591)">
                <path d="M130.314,82.513C130.314,82.513 47.591,187.974 47.591,233.171C47.591,285.826 84.658,328.574 130.314,328.574C175.97,328.574 213.037,285.826 213.037,233.171C213.037,187.974 130.314,82.513 130.314,82.513Z" style="fill:rgb(5,97,125);stroke:rgb(185,195,194);stroke-width:4.93px;"/>
            </g>
            <g transform="matrix(1.22843,0,0,1.02597,158.654,-1.80643)">
                <path d="M177.874,128.613C177.874,117.07 186.41,107.698 196.923,107.698C207.436,107.698 215.972,117.07 215.972,128.613C221.228,118.616 232.888,115.186 241.993,120.958C251.098,126.73 254.222,139.532 248.965,149.529C258.07,143.757 269.73,147.188 274.986,157.185C280.243,167.182 277.119,179.984 268.014,185.756C278.527,185.756 287.063,195.128 287.063,206.672C287.063,218.216 278.527,227.588 268.014,227.588C277.119,233.36 280.243,246.162 274.986,256.159C269.73,266.156 258.07,269.587 248.965,263.815C254.222,273.812 251.098,286.614 241.993,292.386C232.888,298.158 221.228,294.728 215.972,284.731C215.972,296.274 207.436,305.646 196.923,305.646C186.41,305.646 177.874,296.274 177.874,284.731C172.618,294.728 160.958,298.158 151.853,292.386C142.748,286.614 139.624,273.812 144.881,263.815C135.776,269.587 124.116,266.156 118.86,256.159C113.603,246.162 116.727,233.36 125.832,227.588C115.319,227.588 106.783,218.216 106.783,206.672C106.783,195.128 115.319,185.756 125.832,185.756C116.727,179.984 113.603,167.182 118.86,157.185C124.116,147.188 135.776,143.757 144.881,149.529C139.624,139.532 142.748,126.73 151.853,120.958C160.958,115.186 172.618,118.616 177.874,128.613Z" style="fill:white;"/>
            </g>
            <g transform="matrix(1,0,0,1,170.229,14.6519)">
                <ellipse cx="231.005" cy="196.205" rx="18.21" ry="17.859"/>
            </g>
            <g transform="matrix(1,0,0,1,181.337,19.7452)">
                <path d="M225.419,292.582C225.419,301.281 234.436,313.276 238.116,320.991C241.024,327.084 243.743,333.61 246.171,339.909C254.343,361.108 261.012,389.546 250.389,410.791C248.79,413.99 238.183,426.675 234.583,426.675" style="fill:none;stroke:white;stroke-width:11px;"/>
            </g>
        </g>
    </g>
</svg>
