<?xml version="1.0" encoding="UTF-8" standalone="no"?>
<!DOCTYPE svg PUBLIC "-//W3C//DTD SVG 1.1//EN" "http://www.w3.org/Graphics/SVG/1.1/DTD/svg11.dtd">
<svg width="100%" height="100%" viewBox="0 0 443 568" version="1.1" xmlns="http://www.w3.org/2000/svg" xmlns:xlink="http://www.w3.org/1999/xlink" xml:space="preserve" xmlns:serif="http://www.serif.com/" style="fill-rule:evenodd;clip-rule:evenodd;stroke-linecap:round;stroke-linejoin:round;stroke-miterlimit:1.5;">
    <g id="Artboard1" transform="matrix(1,0,0,1,-181.337,-19.7452)">
        <rect x="181.337" y="19.745" width="442.44" height="567.056" style="fill:none;"/>
        <clipPath id="_clip1">
            <rect x="181.337" y="19.745" width="442.44" height="567.056"/>
        </clipPath>
        <g clip-path="url(#_clip1)">
            <g transform="matrix(-2.60129,0.000312633,-0.000271081,-2.25555,741.934,767.591)">
                <path d="M130.314,82.513C130.314,82.513 47.591,187.974 47.591,233.171C47.591,285.826 84.658,328.574 130.314,328.574C175.97,328.574 213.037,285.826 213.037,233.171C213.037,187.974 130.314,82.513 130.314,82.513Z" style="fill:rgb(5,97,125);stroke:rgb(185,195,194);stroke-width:4.93px;"/>
            </g>
            <g transform="matrix(1.18219,0,0,0.699389,140.088,78.4208)">
                <path d="M274.124,348.629L178.696,348.629L202.553,103.458L250.267,103.458L274.124,348.629Z" style="fill:rgb(255,254,254);"/>
            </g>
            <g transform="matrix(1,0,0,1,181.337,75.7452)">
                <rect x="122.713" y="297.651" width="206.425" height="18.155" style="fill:rgb(255,254,254);"/>
            </g>
            <g transform="matrix(0.642288,0,0,1,262.153,38.7452)">
                <rect x="122.713" y="297.651" width="206.425" height="18.155" style="fill:rgb(255,254,254);"/>
            </g>
            <g transform="matrix(1,0,0,1,165.422,57.8985)">
                <path d="M239.931,28.549L260.788,80.854L219.075,80.854L239.931,28.549Z" style="fill:rgb(255,254,254);"/>
            </g>
        </g>
    </g>
</svg>
