<?xml version="1.0" encoding="UTF-8" standalone="no"?>
<!DOCTYPE svg PUBLIC "-//W3C//DTD SVG 1.1//EN" "http://www.w3.org/Graphics/SVG/1.1/DTD/svg11.dtd">
<svg width="100%" height="100%" viewBox="0 0 443 568" version="1.1" xmlns="http://www.w3.org/2000/svg" xmlns:xlink="http://www.w3.org/1999/xlink" xml:space="preserve" xmlns:serif="http://www.serif.com/" style="fill-rule:evenodd;clip-rule:evenodd;stroke-linecap:round;stroke-linejoin:round;stroke-miterlimit:1.5;">
    <g id="Artboard1" transform="matrix(1,0,0,1,-181.337,-19.7452)">
        <rect x="181.337" y="19.745" width="442.44" height="567.056" style="fill:none;"/>
        <clipPath id="_clip1">
            <rect x="181.337" y="19.745" width="442.44" height="567.056"/>
        </clipPath>
        <g clip-path="url(#_clip1)">
            <g transform="matrix(-2.60129,0.000312633,-0.000271081,-2.25555,741.934,767.591)">
                <path d="M130.314,82.513C130.314,82.513 47.591,187.974 47.591,233.171C47.591,285.826 84.658,328.574 130.314,328.574C175.97,328.574 213.037,285.826 213.037,233.171C213.037,187.974 130.314,82.513 130.314,82.513Z" style="fill:rgb(5,97,125);stroke:rgb(185,195,194);stroke-width:4.93px;"/>
            </g>
            <g transform="matrix(6.18774,0,0,6.18774,-471.354,-466.899)">
                <g id="Food---Drinks" serif:id="Food &amp; Drinks">
                    <path d="M135.2,105.291L135.074,99.294C135.059,98.591 134.597,98 134.042,98C133.579,98 132.979,98.58 132.963,99.294L132.9,101.953L132.9,109.408C132.9,110.047 132.39,110.565 131.75,110.565C131.115,110.565 130.6,110.049 130.6,109.408L130.6,98.157C130.6,98.103 130.603,98.051 130.61,98L129.916,98C129.205,98 128.585,98.581 128.547,99.297L128.018,109.267C128.016,109.311 128.015,109.354 128.017,109.396C128.006,109.506 128,109.617 128,109.732C128,111.626 129.766,114.473 132,115.644L132,137.003C132,138.105 132.895,139 134,139C135.112,139 136,138.106 136,137.003L136,115.644C138.234,114.473 140,111.626 140,109.732C140,109.65 139.997,109.569 139.991,109.489C139.999,109.417 140.002,109.343 139.998,109.267L139.469,99.297C139.431,98.581 138.811,98 138.099,98L137.49,98C137.497,98.051 137.5,98.103 137.5,98.157L137.5,109.408C137.5,110.047 136.99,110.565 136.35,110.565C135.715,110.565 135.2,110.049 135.2,109.408L135.2,105.291ZM152,137.021C152,138.114 151.083,139 150,139C149.25,139 148.333,138.115 148,137.144L148,122.596C146.137,120.884 144.765,117.899 144.667,115.855C144.765,110.535 145.335,106.174 146.367,103.589C148.06,99.348 149.406,98.388 149.406,98.388C150.434,97.809 152,98.233 152,99.321L152,137.021Z" style="fill:white;"/>
                </g>
            </g>
        </g>
    </g>
</svg>
