<?xml version="1.0" encoding="UTF-8" standalone="no"?>
<!DOCTYPE svg PUBLIC "-//W3C//DTD SVG 1.1//EN" "http://www.w3.org/Graphics/SVG/1.1/DTD/svg11.dtd">
<svg width="100%" height="100%" viewBox="0 0 443 568" version="1.1" xmlns="http://www.w3.org/2000/svg" xmlns:xlink="http://www.w3.org/1999/xlink" xml:space="preserve" xmlns:serif="http://www.serif.com/" style="fill-rule:evenodd;clip-rule:evenodd;stroke-linecap:round;stroke-linejoin:round;stroke-miterlimit:1.5;">
    <g id="Artboard1" transform="matrix(1,0,0,1,-176.744,-19.7452)">
        <rect x="176.744" y="19.745" width="442.44" height="567.056" style="fill:none;"/>
        <clipPath id="_clip1">
            <rect x="176.744" y="19.745" width="442.44" height="567.056"/>
        </clipPath>
        <g clip-path="url(#_clip1)">
            <g transform="matrix(-2.60129,0.000312633,-0.000271081,-2.25555,737.747,767.591)">
                <path d="M130.314,82.513C130.314,82.513 47.591,187.974 47.591,233.171C47.591,285.826 84.658,328.574 130.314,328.574C175.97,328.574 213.037,285.826 213.037,233.171C213.037,187.974 130.314,82.513 130.314,82.513Z" style="fill:rgb(5,97,125);stroke:rgb(185,195,194);stroke-width:4.93px;"/>
            </g>
            <g transform="matrix(0.950232,0,0,0.557425,22.8345,40.852)">
                <path d="M538.584,215.224C538.584,206.366 534.365,199.173 529.168,199.173L264.48,199.173C259.284,199.173 255.065,206.366 255.065,215.224L255.065,247.326C255.065,256.185 259.284,263.377 264.48,263.377L529.168,263.377C534.365,263.377 538.584,256.185 538.584,247.326L538.584,215.224Z" style="fill:rgb(240,250,254);"/>
            </g>
            <g transform="matrix(1,0,0,0.399435,7.58083,145.238)">
                <path d="M538.584,215.224C538.584,206.366 535.711,199.173 532.173,199.173L261.476,199.173C257.937,199.173 255.065,206.366 255.065,215.224L255.065,247.326C255.065,256.185 257.937,263.377 261.476,263.377L532.173,263.377C535.711,263.377 538.584,256.185 538.584,247.326L538.584,215.224Z" style="fill:rgb(240,250,254);"/>
            </g>
            <g transform="matrix(0.358303,-0.394244,0.241416,0.219407,114.092,339.23)">
                <path d="M538.584,215.224C538.584,206.366 534.18,199.173 528.755,199.173L264.893,199.173C259.469,199.173 255.065,206.366 255.065,215.224L255.065,247.326C255.065,256.185 259.469,263.377 264.893,263.377L528.755,263.377C534.18,263.377 538.584,256.185 538.584,247.326L538.584,215.224Z" style="fill:rgb(240,250,254);"/>
            </g>
            <g transform="matrix(-0.370687,-0.40787,-0.249759,0.22699,689.947,344.815)">
                <path d="M538.584,215.224C538.584,206.366 534.18,199.173 528.755,199.173L264.893,199.173C259.469,199.173 255.065,206.366 255.065,215.224L255.065,247.326C255.065,256.185 259.469,263.377 264.893,263.377L528.755,263.377C534.18,263.377 538.584,256.185 538.584,247.326L538.584,215.224Z" style="fill:rgb(240,250,254);"/>
            </g>
        </g>
    </g>
</svg>
